<?xml version="1.0" encoding="UTF-8"?>
<svg version="1.1" xmlns="http://www.w3.org/2000/svg" width="512" height="512">
<path d="M0 0 C0.87967162 -0.00367669 1.75934325 -0.00735338 2.66567159 -0.01114148 C5.62504098 -0.02218954 8.58437527 -0.02602406 11.54376221 -0.02983093 C13.66089998 -0.0360947 15.77803666 -0.04274142 17.89517212 -0.04974365 C23.65560752 -0.06716054 29.41603462 -0.07770716 35.17648983 -0.08594918 C38.77416821 -0.09109756 42.37184401 -0.09717335 45.96952057 -0.10346031 C57.22222327 -0.12251376 68.47491941 -0.13674494 79.72763515 -0.14507228 C92.72378844 -0.15484822 105.71977157 -0.18117653 118.7158649 -0.22157317 C128.7567175 -0.25171459 138.79752127 -0.26653926 148.83841825 -0.26985329 C154.83749259 -0.27220589 160.83638519 -0.2811938 166.83541107 -0.30631447 C172.47921604 -0.32956573 178.12271919 -0.33384015 183.7665596 -0.32355309 C185.83738076 -0.32305691 187.90821662 -0.32940127 189.97899246 -0.34310913 C192.80780928 -0.36078644 195.63553807 -0.35374223 198.46435547 -0.34057617 C199.28236405 -0.35154542 200.10037263 -0.36251466 200.94316936 -0.37381631 C206.57631848 -0.31058884 209.85051178 0.90551471 214.48614502 4.14717102 C218.90918044 9.73416313 219.61554461 13.67926029 219.58380127 20.66279602 C219.58057861 21.91318665 219.57735596 23.16357727 219.57403564 24.45185852 C219.56565674 25.75381165 219.55727783 27.05576477 219.54864502 28.39717102 C219.5441333 29.7145929 219.53962158 31.03201477 219.53497314 32.38935852 C219.52318818 35.64200843 219.50673513 38.89456686 219.48614502 42.14717102 C220.29769043 42.13146057 221.10923584 42.11575012 221.94537354 42.0995636 C225.64639226 42.03694195 229.34729919 41.9980933 233.04864502 41.95967102 C234.32546143 41.9345343 235.60227783 41.90939758 236.91778564 41.88349915 C245.27160763 41.81840443 250.81626055 41.96660448 257.29864502 47.58467102 C261.25758846 52.22229048 261.73170354 55.18903118 261.68145752 61.31904602 C261.67721268 62.34267242 261.67721268 62.34267242 261.67288208 63.38697815 C261.661726 65.55722409 261.63663059 67.72705073 261.61114502 69.89717102 C261.60110928 71.37242546 261.59198446 72.84768639 261.58380127 74.32295227 C261.56180189 77.93116044 261.52730385 81.53912477 261.48614502 85.14717102 C262.78648682 85.11575012 262.78648682 85.11575012 264.11309814 85.08369446 C267.36338292 85.0150754 270.61329559 84.96515651 273.86407471 84.92744446 C275.26458975 84.90746472 276.66502284 84.88027082 278.06524658 84.84541321 C292.67347235 84.4911481 292.67347235 84.4911481 299.48614502 89.14717102 C303.75306317 94.50817075 304.61142562 98.36138795 304.59967041 105.09712219 C304.59981644 105.79981735 304.59996246 106.50251251 304.60011292 107.22650146 C304.59941659 109.5477457 304.59163728 111.86890956 304.58380127 114.19013977 C304.5819361 115.80010942 304.58051266 117.41007963 304.57951355 119.02005005 C304.5756962 123.25659249 304.56587256 127.49310063 304.55480957 131.72962952 C304.54457866 136.05305009 304.54001233 140.37647621 304.53497314 144.6999054 C304.52424961 153.18234301 304.50718255 161.66475275 304.48614502 170.14717102 C305.33994751 170.12360535 305.33994751 170.12360535 306.21099854 170.0995636 C308.82344376 170.03668663 311.43572912 169.9980157 314.04864502 169.95967102 C314.94389893 169.9345343 315.83915283 169.90939758 316.76153564 169.88349915 C323.2612231 169.81207401 328.37306093 170.41857142 333.44708252 174.86592102 C333.91372314 175.45373352 334.38036377 176.04154602 334.86114502 176.64717102 C335.34325439 177.23498352 335.82536377 177.82279602 336.32208252 178.42842102 C338.88236673 182.20870643 338.60728483 185.76494316 338.59967041 190.18891907 C338.59981644 190.9013678 338.59996246 191.61381653 338.60011292 192.34785461 C338.59941653 194.70156402 338.59163694 197.05519419 338.58380127 199.40888977 C338.58193612 201.04127967 338.58051267 202.67367013 338.57951355 204.30606079 C338.57569603 208.60178677 338.56587226 212.89747891 338.55480957 217.19319153 C338.54457901 221.57693525 338.5400124 225.96068443 338.53497314 230.34443665 C338.52424932 238.94536362 338.50718207 247.54626311 338.48614502 256.14717102 C339.18692169 256.13828857 339.88769836 256.12940613 340.60971069 256.12025452 C347.23002789 256.03993999 353.85020815 255.97912151 360.4709034 255.93992233 C363.8743082 255.91909156 367.27730877 255.89085844 370.68048096 255.84541321 C374.59742308 255.79343753 378.51420437 255.77418834 382.43145752 255.75654602 C384.25521408 255.72557831 384.25521408 255.72557831 386.11581421 255.69398499 C392.53469734 255.69228493 396.66357969 255.71595247 401.48614502 260.14717102 C406.20419744 265.5027981 406.85966645 268.67411472 406.78781128 275.71141052 C406.26120718 281.70905028 404.20848168 287.06171056 402.12286377 292.67451477 C401.65787004 293.96811687 401.19458741 295.2623351 400.73287964 296.55711365 C399.49260072 300.02080019 398.22945316 303.47572291 396.96182632 306.92947769 C395.62861034 310.57500719 394.31757592 314.22849679 393.00445557 317.88130188 C390.86552439 323.8237875 388.71511784 329.76198515 386.55548096 335.69697571 C383.82375454 343.20582801 381.11983699 350.72423408 378.43145752 358.24873352 C378.04211533 359.33820786 377.65277313 360.42768219 377.25163269 361.5501709 C376.48156878 363.70503865 375.71154361 365.85992025 374.94155884 368.01481628 C373.02319141 373.37734245 371.09600125 378.73669571 369.16973877 384.09638977 C365.06553357 395.52007437 360.98404556 406.95179138 356.90704346 418.38520813 C353.99358473 426.55497507 351.0727934 434.72211545 348.15103149 442.88891602 C345.69888176 449.74572878 343.25670756 456.60599803 340.8215332 463.46885681 C339.27084844 467.83322231 337.71237682 472.19477883 336.15197754 476.55567932 C335.42573922 478.5905688 334.70278965 480.6266355 333.98339844 482.66395569 C332.99434523 485.4636479 331.99360063 488.25889812 330.99005127 491.05342102 C330.70756027 491.86223724 330.42506927 492.67105347 330.13401794 493.50437927 C327.19760878 501.60347095 324.175468 507.75363207 316.48614502 512.14717102 C313.06532848 512.64856768 313.06532848 512.64856768 309.23097038 512.65053558 C308.5195055 512.65634935 307.80804062 512.66216311 307.0750162 512.66815305 C304.6905445 512.68275327 302.30710216 512.66886856 299.92263794 512.65510559 C298.19613847 512.6597145 296.46964293 512.66606735 294.7431556 512.67401457 C289.99846964 512.69073209 285.25410498 512.68245054 280.50941777 512.67006969 C275.39281221 512.66103159 270.27626249 512.67498268 265.15966797 512.68598938 C255.13667537 512.70379166 245.11380248 512.69992721 235.09080516 512.68833882 C226.94737903 512.67931251 218.80398649 512.67807701 210.66055679 512.68243408 C209.50242363 512.68304701 208.34429046 512.68365995 207.15106235 512.68429145 C204.79850847 512.68557032 202.44595459 512.68686718 200.09340073 512.68818182 C178.02548038 512.69959236 155.95762646 512.68646592 133.889717 512.66498035 C114.94217147 512.64710423 95.99472394 512.65021682 77.04718018 512.6686554 C55.05618778 512.69004557 33.0652536 512.69849867 11.07425225 512.68620634 C8.73086875 512.68493211 6.38748523 512.68367463 4.04410172 512.68243408 C2.8910364 512.68181698 1.73797108 512.68119988 0.54996439 512.68056408 C-7.58751478 512.67710596 -15.72495711 512.68294934 -23.86243057 512.69235229 C-33.77363463 512.70355287 -43.68471192 512.700573 -53.59590138 512.67922932 C-58.65562539 512.66869345 -63.71513779 512.66464022 -68.77486038 512.67782593 C-73.40226983 512.68970298 -78.02927055 512.68326518 -82.65664266 512.66191572 C-84.33485035 512.65742974 -86.01309223 512.65976037 -87.69127811 512.66941887 C-89.96480392 512.68150493 -92.23691207 512.66918939 -94.51036263 512.65053558 C-96.40788283 512.64956147 -96.40788283 512.64956147 -98.34373677 512.64856768 C-101.51385498 512.14717102 -101.51385498 512.14717102 -103.92011297 510.47081089 C-105.90180172 507.58155344 -106.01497139 505.95471816 -106.01721954 502.46556854 C-106.02765053 501.30010042 -106.03808152 500.13463229 -106.0488286 498.93384695 C-106.03990571 497.65254101 -106.03098283 496.37123507 -106.02178955 495.05110168 C-106.02639736 493.67693498 -106.03274947 492.3027732 -106.04069853 490.92862177 C-106.05743183 487.14852386 -106.0491276 483.3688287 -106.03675365 479.58872914 C-106.02772172 475.51367383 -106.04166363 471.43868889 -106.05267334 467.36364746 C-106.07048308 459.37908145 -106.06660769 451.39466562 -106.05502278 443.41009367 C-106.04599836 436.92231917 -106.04476015 430.43458683 -106.04911804 423.94680786 C-106.04973097 423.02430942 -106.05034391 422.10181098 -106.05097541 421.15135804 C-106.05225428 419.27746609 -106.05355113 417.40357415 -106.05486578 415.52968222 C-106.06627876 397.94789663 -106.05314661 380.36619438 -106.03166431 362.78442246 C-106.01379268 347.69029038 -106.01689658 332.59628134 -106.03533936 317.50215149 C-106.05673339 299.98435295 -106.06518006 282.46662751 -106.0528903 264.94881773 C-106.05161607 263.08172322 -106.05035859 261.21462871 -106.04911804 259.34753418 C-106.04850094 258.42882826 -106.04788384 257.51012234 -106.04724804 256.56357685 C-106.04379073 250.08172426 -106.04963167 243.59991794 -106.05903625 237.11807251 C-106.07024134 229.22151697 -106.06724769 221.32512052 -106.04591328 213.42858326 C-106.03538268 209.39769044 -106.03131499 205.36706311 -106.04450989 201.3361721 C-106.05639842 197.64865997 -106.04993056 193.9616603 -106.02859968 190.2741949 C-106.0219898 188.30296118 -106.03510138 186.33169209 -106.0488286 184.36049509 C-106.03839761 183.19502697 -106.02796662 182.02955884 -106.01721954 180.8287735 C-106.01657013 179.82088571 -106.01592072 178.81299792 -106.01525164 177.77456808 C-105.37360342 174.41223088 -104.1658549 173.24732911 -101.51385498 171.14717102 C-97.94769084 169.95844964 -94.72294157 170.01508406 -91.01312256 170.03364563 C-90.25190598 170.0334996 -89.49068939 170.03335358 -88.70640564 170.03320312 C-86.19037018 170.03389978 -83.67440876 170.04168064 -81.15838623 170.04951477 C-79.41389506 170.05137983 -77.66940338 170.05280332 -75.9249115 170.05380249 C-71.33326776 170.05762076 -66.74165565 170.06744518 -62.15002441 170.07850647 C-57.464665 170.08873541 -52.77930047 170.09330329 -48.09393311 170.0983429 C-38.90055983 170.10906805 -29.70721004 170.12613621 -20.51385498 170.14717102 C-20.51754215 169.33933387 -20.52122932 168.53149672 -20.52502823 167.69917965 C-20.61339635 148.03546881 -20.67957292 128.37179765 -20.72110367 108.70793056 C-20.74172188 99.19859113 -20.76982831 89.68938432 -20.81561279 80.18013 C-20.85550324 71.89108489 -20.88129319 63.60213583 -20.89020896 55.3129974 C-20.89541997 50.92462305 -20.90765224 46.53652345 -20.93677521 42.14823723 C-20.96397927 38.01550703 -20.97228996 33.88316409 -20.96628571 29.75035286 C-20.96738372 28.23585529 -20.97530808 26.72134442 -20.99067688 25.20692444 C-21.12799468 10.97449245 -21.12799468 10.97449245 -16.51385498 5.14717102 C-11.22458401 0.24491987 -6.95599516 -0.00155082 0 0 Z " fill="#000001" transform="translate(105.51385498046875,-0.1471710205078125)"/>
<path d="M0 0 C1.19953652 0.00037972 2.39907305 0.00075944 3.63495916 0.00115067 C4.30302061 -0.00000318 4.97108206 -0.00115702 5.6593878 -0.00234583 C7.92596013 -0.00501897 10.19246318 -0.00048466 12.459032 0.00394398 C14.08919137 0.00350842 15.71935067 0.00263379 17.3495096 0.00135481 C21.85088076 -0.00089314 26.35222836 0.00313522 30.85359651 0.00813287 C35.69956831 0.0124329 40.54553868 0.01099127 45.39151186 0.0102306 C53.79473431 0.00970508 62.19794902 0.0128548 70.60116953 0.01846844 C82.75096447 0.02657965 94.90075566 0.02919827 107.05055302 0.03045643 C126.76060294 0.03264755 146.47064874 0.03930925 166.18069643 0.04875904 C185.33238893 0.05793162 204.4840803 0.06501321 223.63577455 0.06926686 C224.81537508 0.06952958 225.99497561 0.0697923 227.21032161 0.07006299 C233.12775912 0.07136798 239.04519663 0.0726317 244.96263415 0.07387489 C294.08944227 0.08424936 343.2162459 0.1018693 392.34304994 0.1241985 C391.22343057 3.49194171 390.10275203 6.85933156 388.98188967 10.22666126 C388.66663568 11.17496799 388.35138169 12.12327472 388.02657455 13.10031801 C385.83046296 19.69561659 383.57186302 26.26335109 381.20633119 32.79997975 C380.84919542 33.79353977 380.49205965 34.7870998 380.12410158 35.81076771 C379.36374797 37.9253085 378.60232832 40.03946624 377.83987612 42.15325123 C376.18286075 46.74719056 374.53133387 51.34309801 372.87939638 55.93886524 C372.01062136 58.35572851 371.1415804 60.77249619 370.27227968 63.18917042 C366.02566502 74.99722777 361.8052792 86.81459261 357.58856386 98.63335377 C350.56334811 118.32316778 343.52406454 138.00790054 336.46804994 157.6866985 C336.10711244 158.69337574 335.74617494 159.70005299 335.37429994 160.73723561 C328.03632238 181.20162755 320.68830445 201.6624181 313.34304994 222.1241985 C182.99304994 222.1241985 52.64304994 222.1241985 -81.65695006 222.1241985 C-80.99021527 218.12378979 -80.44750161 215.14123592 -79.11666685 211.46648365 C-78.80009123 210.58431675 -78.48351561 209.70214985 -78.15734679 208.79325062 C-77.81045805 207.84285404 -77.46356932 206.89245747 -77.10616881 205.913261 C-76.74058867 204.89861271 -76.37500853 203.88396443 -75.9983502 202.83856922 C-74.78496453 199.47377219 -73.56458964 196.11155166 -72.34445006 192.7491985 C-71.48439871 190.36700762 -70.62495322 187.98459792 -69.76608092 185.6019817 C-68.42373807 181.87847816 -67.08120967 178.15504445 -65.73637205 174.43244129 C-61.44662072 162.55681492 -57.19663787 150.66710691 -52.95464903 138.77434498 C-51.70932444 135.28331325 -50.46317611 131.79257664 -49.21676451 128.30193287 C-45.42675354 117.68765782 -41.63848738 107.07276093 -37.85137755 96.45745045 C-32.45938959 81.34416387 -27.06159784 66.23296251 -21.65695006 51.1241985 C-21.01484587 49.32870564 -21.01484587 49.32870564 -20.35976988 47.4969402 C-17.80224474 40.34640576 -15.24139362 33.19707761 -12.67580992 26.04943043 C-11.87613252 23.82032716 -11.07741517 21.59087923 -10.27969176 19.36107594 C-9.18548108 16.30327776 -8.08772797 13.24677541 -6.98898131 10.19060475 C-6.66397139 9.28003819 -6.33896147 8.36947163 -6.00410277 7.43131214 C-5.70754286 6.60881474 -5.41098295 5.78631733 -5.10543638 4.93889576 C-4.84821303 4.22177922 -4.59098967 3.50466267 -4.32597166 2.76581532 C-3.2347798 0.08829503 -3.04019483 0.14211318 0 0 Z " fill="#2195F2" transform="translate(102.65695005655289,272.8758015036583)"/>
<path d="M0 0 C67.65 0 135.3 0 205 0 C205 50.82 205 101.64 205 154 C187.18 154 169.36 154 151 154 C154.1358783 150.34147531 157.17147057 146.80658137 160.4375 143.3125 C168.16296762 134.42735954 172.54120322 124.14651306 176 113 C176.37125 111.88431641 176.37125 111.88431641 176.75 110.74609375 C181.01115564 95.62490951 177.88620148 78.14753689 172 64 C171.66355469 63.18917969 171.32710937 62.37835938 170.98046875 61.54296875 C162.87839147 43.82146404 148.16438582 30.54872057 130.1640625 23.421875 C111.8924564 16.75676082 89.95240838 15.74509793 72 24 C51.25358154 33.90972541 37.06216401 49.73394493 29 71.1875 C22.82726741 90.88169265 26.18278208 112.86652165 35.3125 130.9375 C38.66361291 136.77280748 42.60382252 141.92179872 47 147 C48.98 149.31 50.96 151.62 53 154 C35.51 154 18.02 154 0 154 C0 103.18 0 52.36 0 0 Z " fill="#CED7DB" transform="translate(188,102)"/>
<path d="M0 0 C67.65 0 135.3 0 205 0 C205 8.58 205 17.16 205 26 C202.93588364 26.00586624 200.87176727 26.01173248 198.74510193 26.01777649 C179.3071745 26.07443389 159.86935837 26.14750871 140.43154812 26.23571491 C130.43801872 26.28066926 120.44452493 26.3200848 110.45092773 26.34643555 C101.73991446 26.36941851 93.0290139 26.40281993 84.31809002 26.44870156 C79.70625423 26.47262971 75.09453004 26.49136118 70.48263359 26.49761391 C66.13975642 26.50366658 61.7971648 26.52367309 57.45439339 26.55427551 C55.86253467 26.56305279 54.27063864 26.56677896 52.67875671 26.56500816 C50.5001043 26.56335018 48.322317 26.58009788 46.14378357 26.60127258 C44.31725077 26.60818603 44.31725077 26.60818603 42.45381832 26.61523914 C37.68283048 27.14673478 33.81414464 28.00883398 30.47225356 31.67682153 C27.06629018 36.5841844 26.27810502 40.71645544 26.36076355 46.59277344 C26.34823004 47.83421757 26.34823004 47.83421757 26.33544332 49.10074139 C26.31362175 51.85405658 26.32708676 54.60602397 26.34057617 57.359375 C26.33211829 59.34083564 26.32147204 61.32228797 26.30880737 63.3037262 C26.28069427 68.6689001 26.28312687 74.03367374 26.29110122 79.39889908 C26.2942288 85.01102835 26.2691845 90.62303071 26.24714661 96.23510742 C26.20971052 106.85611245 26.19755886 117.47698944 26.1945222 128.09805393 C26.18983092 140.19238783 26.15690529 152.2865935 26.12162435 164.38087082 C26.04969743 189.25390313 26.01417572 214.12687352 26 239 C17.42 239 8.84 239 0 239 C0 160.13 0 81.26 0 0 Z " fill="#CCD5D9" transform="translate(102,17)"/>
<path d="M0 0 C8.93394004 -0.54405404 17.10677795 2.9699622 24 8.5390625 C31.4262758 15.6411142 34.59293695 24.53329809 34.875 34.6640625 C34.65563303 45.92920168 30.73032051 53.23608245 22.75 61.0390625 C20.08040168 62.92348484 17.82689328 64.14841654 14.86328125 65.4296875 C14.05673096 65.78063477 13.25018066 66.13158203 12.41918945 66.49316406 C11.50012817 66.88713379 11.50012817 66.88713379 10.5625 67.2890625 C10.53349545 70.8932123 10.51569982 74.49733212 10.5 78.1015625 C10.48743164 79.63780273 10.48743164 79.63780273 10.47460938 81.20507812 C10.47138672 82.18798828 10.46816406 83.17089844 10.46484375 84.18359375 C10.45960693 85.08956299 10.45437012 85.99553223 10.44897461 86.92895508 C10.46329019 89.44190289 10.46329019 89.44190289 11.5625 92.2890625 C14.5568864 93.2871913 16.55146952 93.42172121 19.67979431 93.43623352 C20.73832108 93.44338882 21.79684784 93.45054413 22.88745117 93.45791626 C24.04857422 93.46060516 25.20969727 93.46329407 26.40600586 93.46606445 C28.24045006 93.47592125 28.24045006 93.47592125 30.11195374 93.48597717 C34.16708622 93.50572161 38.22217918 93.51737439 42.27734375 93.52734375 C43.6736662 93.53139176 45.06998845 93.5355087 46.4663105 93.53969383 C53.02410644 93.55873662 59.58189115 93.57297173 66.13970941 93.5813058 C73.7109688 93.59108688 81.28193652 93.61743255 88.85309309 93.65780669 C94.7053995 93.68794515 100.55762215 93.70277234 106.41000468 93.70608681 C109.90566459 93.70843918 113.40101256 93.71742373 116.89658928 93.74254799 C120.79435503 93.77011195 124.69173497 93.76600452 128.58959961 93.7590332 C129.74869843 93.77184326 130.90779724 93.78465332 132.10202026 93.79785156 C133.16336685 93.79090775 134.22471344 93.78396393 135.31822205 93.77680969 C136.7005976 93.78039222 136.7005976 93.78039222 138.11089993 93.78404713 C141.33335744 93.13342432 142.53069632 91.81831337 144.5625 89.2890625 C145.19664415 86.79316119 145.19664415 86.79316119 145.171875 84.0859375 C145.20410156 83.10625 145.23632812 82.1265625 145.26953125 81.1171875 C145.28371094 80.10140625 145.29789063 79.085625 145.3125 78.0390625 C145.34214844 77.0078125 145.37179687 75.9765625 145.40234375 74.9140625 C145.47294778 72.37231755 145.52569009 69.83148467 145.5625 67.2890625 C144.50160156 67.02222656 143.44070313 66.75539063 142.34765625 66.48046875 C134.53834102 64.02242835 128.99298651 58.58223619 124.78125 51.66796875 C120.22439336 42.77333511 118.8660506 33.12537484 121.8125 23.4765625 C125.51349085 13.77443228 132.65404694 7.2772111 141.5625 2.2890625 C149.45350371 -0.85243021 158.04378968 -1.01824071 166 2.0390625 C175.46887514 6.44567267 183.07864988 12.78919996 187.0625 22.6640625 C190.19756006 32.72704545 188.94155424 41.77728891 184.5625 51.2890625 C180.47000716 58.36679548 175.00691382 62.93787943 167.5625 66.2890625 C165.90056891 66.64525616 164.2341646 66.98177377 162.5625 67.2890625 C162.58606567 68.31676758 162.58606567 68.31676758 162.61010742 69.36523438 C162.67294183 72.50642453 162.71164349 75.64748189 162.75 78.7890625 C162.77513672 79.86671875 162.80027344 80.944375 162.82617188 82.0546875 C162.90635188 90.8210344 161.77072923 98.01646239 155.47411919 104.56301212 C148.07293607 111.24573167 140.02867892 112.01474345 130.43701172 111.92016602 C129.16093048 111.92732132 127.88484924 111.93447662 126.57009888 111.94184875 C123.09892034 111.96022861 119.62851832 111.94751229 116.15737295 111.92775846 C112.50962146 111.91126545 108.86191505 111.92019922 105.21414185 111.92527771 C99.09299438 111.92978573 92.97215379 111.91400675 86.85107422 111.88598633 C79.79015096 111.85391135 72.72978 111.85396534 65.6688174 111.8712011 C58.85252754 111.88710151 52.03643876 111.880312 45.22015762 111.86326408 C42.32956666 111.85641997 39.43913817 111.85739856 36.54854965 111.86480904 C32.50845759 111.87394052 28.46920897 111.84986135 24.42919922 111.82250977 C23.23937439 111.82903564 22.04954956 111.83556152 20.82366943 111.84228516 C11.72128524 111.73767766 5.34149766 109.69144918 -1.4375 103.2890625 C-7.46210968 95.37100406 -7.70977873 88.53249645 -7.5625 78.9140625 C-7.55347656 77.79644531 -7.54445312 76.67882812 -7.53515625 75.52734375 C-7.51168346 72.78102788 -7.47884728 70.03515778 -7.4375 67.2890625 C-8.21996094 67.14500977 -9.00242188 67.00095703 -9.80859375 66.85253906 C-18.1082985 65.07359046 -24.66680836 58.06120045 -29.30078125 51.29296875 C-33.80540941 43.35182014 -34.71066329 34.34931974 -32.8515625 25.5 C-29.93353231 15.99632369 -23.21481018 8.05201553 -14.52734375 3.18359375 C-9.81295111 1.16565746 -5.04978699 0.59885294 0 0 Z " fill="#000102" transform="translate(195.4375,289.7109375)"/>
<path d="M0 0 C62.04 0 124.08 0 188 0 C188 8.25 188 16.5 188 25 C186.14886093 25.00364563 184.29772186 25.00729126 182.39048767 25.01104736 C164.95392891 25.04797217 147.51754552 25.10548045 130.0811224 25.18390274 C121.11665997 25.22369349 112.15228533 25.25608579 103.18774414 25.27099609 C95.3732387 25.28401244 87.55892643 25.31097661 79.74452978 25.35461307 C75.60773051 25.37722836 71.47116948 25.39291065 67.3343029 25.39188385 C63.43783723 25.39113727 59.54189823 25.40908678 55.64556885 25.44116783 C54.21819525 25.44966297 52.79076254 25.45141933 51.36337471 25.44580269 C40.9595624 25.34792042 40.9595624 25.34792042 32 30 C27.81157652 34.62931016 26.87584472 37.09674379 26.84178162 43.27676392 C26.83684364 43.92775759 26.83190566 44.57875127 26.82681805 45.24947202 C26.81140543 47.44056334 26.8030723 49.63162527 26.79467773 51.82275391 C26.78510216 53.3895341 26.77509227 54.9563117 26.76467896 56.52308655 C26.73758903 60.78521228 26.71660164 65.04734913 26.69667697 69.30951357 C26.67484258 73.76051147 26.64744146 78.21147493 26.62062073 82.66244507 C26.57065933 91.09490146 26.52573331 99.52737693 26.48259836 107.9598707 C26.43325541 117.55830613 26.37832639 127.15670703 26.32291877 136.75510907 C26.20904581 156.50337407 26.10241652 176.25167255 26 196 C17.42 196 8.84 196 0 196 C0 131.32 0 66.64 0 0 Z " fill="#5F7C89" transform="translate(145,60)"/>
<path d="M0 0 C2.08357344 2.08357344 2.57658335 3.19006208 3.5246582 5.91137695 C3.80867996 6.71593826 4.09270172 7.52049957 4.3853302 8.34944153 C4.68742905 9.22025864 4.98952789 10.09107574 5.30078125 10.98828125 C5.95458541 12.82764917 6.60889844 14.66683627 7.26367188 16.50585938 C8.2897745 19.40705845 9.31148802 22.30959547 10.32397461 25.21557617 C11.30362591 28.01945514 12.30092355 30.81655511 13.30078125 33.61328125 C13.5968074 34.47802567 13.89283356 35.34277008 14.1978302 36.23371887 C16.48604731 42.58052479 19.30192031 46.20128021 25 50 C33.29805126 51.12689585 41.78968831 49.43114817 49.96850586 48.06762695 C54.37023435 47.3411197 58.51793991 46.82480547 63 47 C61.64414077 53.75056667 59.71327334 60.04263566 57.3515625 66.50390625 C56.98739731 67.51430969 56.62323212 68.52471313 56.24803162 69.56573486 C55.04526851 72.89978794 53.83502657 76.23107696 52.625 79.5625 C51.76946635 81.93100461 50.9145797 84.29974301 50.06030273 86.66870117 C48.49922198 90.99721409 46.93693224 95.32528426 45.3728323 99.6527071 C41.31663768 110.87767177 37.30374046 122.1180064 33.29431152 133.35974121 C32.06216308 136.81344438 30.82865318 140.26665833 29.59472656 143.71972656 C25.64755583 154.7673819 21.70743053 165.81747601 17.78373718 176.87348938 C16.15630363 181.4589714 14.52618792 186.04349857 12.8954401 190.62780285 C11.77916701 193.76649752 10.66497854 196.90589804 9.55349731 200.04629517 C8.32840847 203.50744418 7.0983463 206.96678761 5.8671875 210.42578125 C5.5035762 211.45731323 5.1399649 212.48884521 4.76533508 213.55163574 C4.42882431 214.49406128 4.09231354 215.43648682 3.74560547 216.4074707 C3.45507294 217.22673538 3.16454041 218.04600006 2.86520386 218.89009094 C2 221 2 221 0 224 C0 150.08 0 76.16 0 0 Z " fill="#3E50B3" transform="translate(17,229)"/>
<path d="M0 0 C8.38293514 6.15402764 14.26461245 12.62984967 19.3359375 21.71484375 C19.93535156 22.73191406 19.93535156 22.73191406 20.546875 23.76953125 C27.61405461 36.57547325 28.04147976 51.79976056 24.3359375 65.71484375 C21.2707441 75.5929084 17.13294844 85.67050801 8.3359375 91.71484375 C8.12839844 90.95300781 7.92085938 90.19117188 7.70703125 89.40625 C4.6495733 79.15928843 -0.15318874 72.14989465 -8.6640625 65.71484375 C-6.86158411 62.02605076 -4.8364413 58.48834292 -2.78515625 54.93359375 C0.77227797 47.89309676 0.32936711 38.39725083 -1.27734375 30.82421875 C-4.29586222 22.36704807 -9.94127899 15.81882818 -17.9140625 11.71484375 C-26.06275646 7.97786308 -35.63411163 7.18992843 -44.3671875 9.3984375 C-46.61474586 10.34539828 -48.60143746 11.41555239 -50.6640625 12.71484375 C-51.70820313 13.33359375 -51.70820313 13.33359375 -52.7734375 13.96484375 C-60.17587546 18.86269744 -64.28998883 26.2831561 -66.6640625 34.71484375 C-68.40826171 47.18663985 -64.44217082 55.54768128 -57.6640625 65.71484375 C-59.2109375 66.70484375 -59.2109375 66.70484375 -60.7890625 67.71484375 C-67.59616785 72.6065895 -71.13998989 78.87517453 -73.6640625 86.71484375 C-74.32472969 88.3838977 -74.98844502 90.05178535 -75.6640625 91.71484375 C-83.02076058 85.00726609 -87.39998224 77.04714595 -90.6640625 67.71484375 C-91.02242187 66.86535156 -91.38078125 66.01585937 -91.75 65.140625 C-94.95812339 53.11701724 -94.30332482 36.82503221 -88.6640625 25.71484375 C-87.96990234 24.25304687 -87.96990234 24.25304687 -87.26171875 22.76171875 C-79.59805745 8.14642337 -67.15498217 -1.94794782 -51.7890625 -7.72265625 C-34.19180755 -12.58728202 -15.27517956 -9.97200261 0 0 Z " fill="#FBE839" transform="translate(323.6640625,146.28515625)"/>
<path d="M0 0 C21.12 0 42.24 0 64 0 C64 23.1 64 46.2 64 70 C33 75 33 75 27 75 C21.15835332 59.47382063 15.36011722 43.93219079 9.63061523 28.36425781 C8.82050534 26.16484342 8.0089312 23.96596791 7.19604492 21.76757812 C6.00128934 18.53629128 4.81069497 15.30349989 3.62109375 12.0703125 C3.25559921 11.08410919 2.89010468 10.09790588 2.51353455 9.08181763 C2.01654808 7.72671585 2.01654808 7.72671585 1.50952148 6.34423828 C1.21689926 5.55058868 0.92427704 4.75693909 0.62278748 3.9392395 C0 2 0 2 0 0 Z " fill="#2195F2" transform="translate(21,188)"/>
<path d="M0 0 C5.61 0 11.22 0 17 0 C12.38066374 14.0898496 7.52788839 28.08118328 2.49682617 42.02905273 C0.8398108 46.62299206 -0.81171608 51.21889951 -2.46365356 55.81466675 C-3.33242858 58.23153001 -4.20146955 60.64829769 -5.07077026 63.06497192 C-9.31738493 74.87302927 -13.53777074 86.69039412 -17.75448608 98.50915527 C-32.44841029 139.69232245 -47.22159631 180.84708792 -62 222 C-67.61 222 -73.22 222 -79 222 C-74.03466701 206.89253173 -68.87973085 191.86964869 -63.47741699 176.91299438 C-61.40730642 171.1811439 -59.3470071 165.44576315 -57.28515625 159.7109375 C-56.854841 158.51481339 -56.42452576 157.31868927 -55.98117065 156.08631897 C-51.0382098 142.33996581 -46.14373289 128.57643035 -41.25 114.8125 C-39.48331658 109.84496542 -37.71623391 104.87757283 -35.94921875 99.91015625 C-35.52468414 98.71662033 -35.10014954 97.52308441 -34.66275024 96.29338074 C-28.4596254 78.85589802 -22.23623655 61.42566623 -16 44 C-15.68099731 43.10851257 -15.36199463 42.21702515 -15.0333252 41.29852295 C-13.06529367 35.79918452 -11.09588958 30.30034037 -9.12472534 24.80212402 C-8.50735453 23.07981406 -7.89026178 21.35740439 -7.27346802 19.6348877 C-6.42671643 17.27058549 -5.57876533 14.90671699 -4.73046875 12.54296875 C-4.48225372 11.84924667 -4.2340387 11.1555246 -3.978302 10.44078064 C-2.71624062 6.92849987 -1.3868488 3.46712199 0 0 Z " fill="#1566BF" transform="translate(478,273)"/>
<path d="M0 0 C67.65 0 135.3 0 205 0 C205 50.82 205 101.64 205 154 C199.06 154 193.12 154 187 154 C187 103.51 187 53.02 187 1 C125.29 1 63.58 1 0 1 C0 0.67 0 0.34 0 0 Z " fill="#617C88" transform="translate(188,102)"/>
<path d="M0 0 C5.0803494 3.08332221 8.34585767 7.31507407 10 13 C10.30228686 16.69570059 10.24468124 20.30259459 10 24 C8.48105765 24.62958174 6.95972805 25.25340464 5.4375 25.875 C4.59058594 26.22304687 3.74367188 26.57109375 2.87109375 26.9296875 C-3.41989831 29.27490086 -8.95935251 30.38719895 -15.625 30.375 C-16.4075415 30.37556396 -17.19008301 30.37612793 -17.99633789 30.37670898 C-25.2015771 30.24203849 -31.27162264 28.61367545 -38 26 C-38.99 25.67 -39.98 25.34 -41 25 C-41.9225671 11.55102186 -41.9225671 11.55102186 -37.5546875 5.71484375 C-27.37787676 -5.51033191 -13.42415117 -7.43079148 0 0 Z " fill="#E51D61" transform="translate(306,226)"/>
<path d="M0 0 C5.61 0 11.22 0 17 0 C17 22.44 17 44.88 17 68 C11.39 68 5.78 68 0 68 C0 45.56 0 23.12 0 0 Z " fill="#2192EE" transform="translate(410,188)"/>
<path d="M0 0 C4.02221055 2.97643581 6.53476047 5.5417814 8.125 10.3125 C8.6885668 16.00235711 8.45296433 20.48158403 5.125 25.3125 C0.80246893 29.66568732 -2.33099429 32.10049952 -8.625 32.625 C-13.39752495 32.55481581 -15.99937123 31.07015893 -19.875 28.3125 C-24.40267312 23.41771825 -26.42508673 19.33375919 -26.25 12.69140625 C-25.4815583 7.81660421 -22.96087344 4.19190374 -19.3359375 0.92578125 C-13.56953068 -2.96859302 -6.14035292 -3.22829714 0 0 Z " fill="#CBD4D8" transform="translate(298.875,172.6875)"/>
<path d="M0 0 C67.65 0 135.3 0 205 0 C205 8.91 205 17.82 205 27 C150.22 27 95.44 27 39 27 C39 26.67 39 26.34 39 26 C88.17 26 137.34 26 188 26 C188 17.75 188 9.5 188 1 C125.96 1 63.92 1 0 1 C0 0.67 0 0.34 0 0 Z " fill="#2A363D" transform="translate(145,59)"/>
<path d="M0 0 C4.75982924 2.62772498 7.04616381 6.26349144 8.75 11.375 C9.28029448 16.42583759 9.29762715 20.27974571 7 24.875 C4.94573231 27.15751966 3.60898185 28.35393505 0.75 29.375 C0.62625 27.51875 0.62625 27.51875 0.5 25.625 C0.1180895 22.66911734 -0.19741088 21.45096207 -1.9375 18.9375 C-4.86630829 16.95857548 -6.70569535 16.375 -10.25 16.375 C-13.25931158 17.53055014 -13.25931158 17.53055014 -15.25 20.375 C-15.95902351 23.70636783 -16.17861637 26.97454345 -16.25 30.375 C-24.22203759 24.17215792 -24.22203759 24.17215792 -25.25 19.375 C-25.93764953 13.38262555 -25.11946108 10.09098637 -21.68359375 5.13671875 C-15.96159908 -1.89494228 -8.22419934 -3.70473279 0 0 Z " fill="#1463BA" transform="translate(204.25,308.625)"/>
<path d="M0 0 C4.7406682 2.73845417 8.6093675 6.06270024 10.875 11.12890625 C12.01220103 16.67276125 10.56843071 21.20642943 7.875 26.12890625 C5.25 29.06640625 5.25 29.06640625 2.875 31.12890625 C2.545 31.12890625 2.215 31.12890625 1.875 31.12890625 C1.83761719 30.44183594 1.80023438 29.75476563 1.76171875 29.046875 C1.69597656 28.14582031 1.63023437 27.24476563 1.5625 26.31640625 C1.50449219 25.42308594 1.44648438 24.52976562 1.38671875 23.609375 C0.79852501 20.75820688 0.24221415 19.79191481 -2.125 18.12890625 C-4.06957312 17.65747665 -4.06957312 17.65747665 -6.125 17.75390625 C-6.805625 17.74617188 -7.48625 17.7384375 -8.1875 17.73046875 C-10.7395487 18.25528522 -11.57108754 19.05243916 -13.125 21.12890625 C-13.90856902 23.39284596 -13.90856902 23.39284596 -14.3125 25.81640625 C-14.47105469 26.62464844 -14.62960937 27.43289063 -14.79296875 28.265625 C-14.90253906 28.88050781 -15.01210938 29.49539063 -15.125 30.12890625 C-18.19903261 28.63343093 -19.94953122 27.37698281 -21.9375 24.56640625 C-23.52580447 19.96868277 -23.82399657 15.94334328 -23.125 11.12890625 C-20.73260989 6.25211103 -17.40931045 3.31935021 -13.125 0.12890625 C-8.59090505 -1.38245873 -4.45322683 -1.82549556 0 0 Z " fill="#1462B9" transform="translate(356.125,307.87109375)"/>
<path d="M0 0 C5.61 0 11.22 0 17 0 C17 8.58 17 17.16 17 26 C-37.12 26 -91.24 26 -147 26 C-147 25.67 -147 25.34 -147 25 C-98.49 25 -49.98 25 0 25 C0 16.75 0 8.5 0 0 Z " fill="#69808B" transform="translate(290,17)"/>
</svg>
